<svg xmlns="http://www.w3.org/2000/svg" viewBox="0 0 500 500" width="500" height="500"><title>Loja Pronta 24h — Logo</title><desc>Logo minimalista da Loja Pronta 24h. Símbolo LP24 em ciano e branco sobre fundo escuro.</desc><defs><filter id="glow-cyan" x="-30%" y="-30%" width="160%" height="160%"><feGaussianBlur stdDeviation="5" result="blur"/><feMerge><feMergeNode in="blur"/><feMergeNode in="SourceGraphic"/></feMerge></filter><filter id="glow-24" x="-15%" y="-15%" width="130%" height="130%"><feGaussianBlur stdDeviation="8" result="blur"/><feMerge><feMergeNode in="blur"/><feMergeNode in="SourceGraphic"/></feMerge></filter><radialGradient id="bg-grad" cx="50%" cy="45%" r="65%"><stop offset="0%" stop-color="#162035"/><stop offset="100%" stop-color="#080e1a"/></radialGradient></defs><rect width="500" height="500" rx="44" fill="url(#bg-grad)"/><rect x="18" y="18" width="464" height="464" rx="34" fill="none" stroke="#22d3ee" stroke-width="1" opacity="0.15"/><g stroke="#22d3ee" stroke-width="2.5" fill="none" stroke-linecap="round" stroke-linejoin="round" opacity="0.75"><path d="M 54 84 L 54 54 L 84 54"/><path d="M 446 84 L 446 54 L 416 54"/><path d="M 54 416 L 54 446 L 84 446"/><path d="M 446 416 L 446 446 L 416 446"/></g><circle cx="250" cy="92" r="5.5" fill="#22d3ee" filter="url(#glow-cyan)"/><circle cx="250" cy="92" r="11" fill="none" stroke="#22d3ee" stroke-width="1.5" opacity="0.4"/><circle cx="250" cy="92" r="18" fill="none" stroke="#22d3ee" stroke-width="0.8" opacity="0.18"/><text x="250" y="300" text-anchor="middle" font-family="'Arial Black','Arial Bold',Impact,'Helvetica Neue',sans-serif" font-size="152" font-weight="900" opacity="0.35" filter="url(#glow-24)"><tspan fill="none">LP</tspan><tspan fill="#22d3ee">24</tspan></text><text x="250" y="300" text-anchor="middle" font-family="'Arial Black','Arial Bold',Impact,'Helvetica Neue',sans-serif" font-size="152" font-weight="900"><tspan fill="#ffffff">LP</tspan><tspan fill="#22d3ee">24</tspan></text><line x1="86" y1="328" x2="414" y2="328" stroke="#22d3ee" stroke-width="1" opacity="0.28"/><circle cx="86" cy="328" r="2.5" fill="#22d3ee" opacity="0.5"/><circle cx="414" cy="328" r="2.5" fill="#22d3ee" opacity="0.5"/><text x="250" y="376" text-anchor="middle" font-family="'Arial','Helvetica Neue',Helvetica,sans-serif" font-size="21" font-weight="600" fill="#ffffff" letter-spacing="7" opacity="0.85">LOJA PRONTA 24H</text><text x="250" y="420" text-anchor="middle" font-family="'Arial','Helvetica Neue',Helvetica,sans-serif" font-size="11" font-weight="400" fill="#22d3ee" letter-spacing="4" opacity="0.55">DIGITAL · RÁPIDO · PRONTO</text></svg>