<svg xmlns="http://www.w3.org/2000/svg" viewBox="0 0 280 320" width="280" height="320">
  <defs>
    <clipPath id="jccor"><path d="M20 70 L8 34 L90 20 Q118 6 140 4 Q162 6 190 20 L272 34 L260 70 L208 58 L208 280 Q208 290 198 290 L82 290 Q72 290 72 280 L72 58 Z"/></clipPath>
    <linearGradient id="jgcor" x1="0.2" y1="0" x2="0.8" y2="1">
      <stop offset="0%" stop-color="rgba(255,255,255,0.18)"/>
      <stop offset="100%" stop-color="rgba(0,0,0,0.22)"/>
    </linearGradient>
    
  </defs>
  <path d="M20 70 L8 34 L90 20 Q118 6 140 4 Q162 6 190 20 L272 34 L260 70 L208 58 L208 280 Q208 290 198 290 L82 290 Q72 290 72 280 L72 58 Z" fill="#f9fafb" clip-path="url(#jccor)"/>
  <path d="M20 70 L8 34 L90 20 L72 58 Z" fill="#111827" clip-path="url(#jccor)"/>
  <path d="M208 58 L190 20 L272 34 L260 70 Z" fill="#111827" clip-path="url(#jccor)"/>
  <rect y="0" width="280" height="30" fill="#111827" clip-path="url(#jcor)"/>
  <path d="M20 70 L8 34 L90 20 Q118 6 140 4 Q162 6 190 20 L272 34 L260 70 L208 58 L208 280 Q208 290 198 290 L82 290 Q72 290 72 280 L72 58 Z" fill="url(#jgcor)"/>
  <path d="M116 20 Q140 36 164 20" fill="none" stroke="white" stroke-width="5" stroke-linecap="round"/>
  <line x1="72" y1="58" x2="72" y2="130" stroke="rgba(0,0,0,0.1)" stroke-width="1.5"/>
  <line x1="208" y1="58" x2="208" y2="130" stroke="rgba(0,0,0,0.1)" stroke-width="1.5"/>
  <circle cx="108" cy="108" r="14" fill="rgba(17,24,39,0.7)" stroke="white" stroke-width="1.5" opacity="0.85"/>
  <text x="108" y="112" text-anchor="middle" font-family="'Bebas Neue',Impact,sans-serif" font-size="11" fill="white" opacity="0.9">COR</text>
  <text x="140" y="218" text-anchor="middle" font-family="'Bebas Neue',Impact,sans-serif" font-size="72" fill="rgba(17,24,39,0.12)" font-weight="900">17</text>
  <path d="M20 70 L8 34 L90 20 Q118 6 140 4 Q162 6 190 20 L272 34 L260 70 L208 58 L208 280 Q208 290 198 290 L82 290 Q72 290 72 280 L72 58 Z" fill="none" stroke="rgba(0,0,0,0.12)" stroke-width="2"/>
</svg>