<svg xmlns="http://www.w3.org/2000/svg" viewBox="0 0 280 320" width="280" height="320">
  <defs>
    <clipPath id="jccfc"><path d="M20 70 L8 34 L90 20 Q118 6 140 4 Q162 6 190 20 L272 34 L260 70 L208 58 L208 280 Q208 290 198 290 L82 290 Q72 290 72 280 L72 58 Z"/></clipPath>
    <linearGradient id="jgcfc" x1="0.2" y1="0" x2="0.8" y2="1">
      <stop offset="0%" stop-color="rgba(255,255,255,0.18)"/>
      <stop offset="100%" stop-color="rgba(0,0,0,0.22)"/>
    </linearGradient>
    
    <pattern id="cfc-stripes" x="0" y="0" width="28" height="320" patternUnits="userSpaceOnUse">
      <rect width="14" height="320" fill="#f9fafb"/>
      <rect x="14" width="14" height="320" fill="#15803d"/>
    </pattern>
  </defs>
  <path d="M20 70 L8 34 L90 20 Q118 6 140 4 Q162 6 190 20 L272 34 L260 70 L208 58 L208 280 Q208 290 198 290 L82 290 Q72 290 72 280 L72 58 Z" fill="url(#cfc-stripes)" clip-path="url(#jccfc)"/>
  <path d="M20 70 L8 34 L90 20 Q118 6 140 4 Q162 6 190 20 L272 34 L260 70 L208 58 L208 280 Q208 290 198 290 L82 290 Q72 290 72 280 L72 58 Z" fill="url(#jgcfc)"/>
  <path d="M116 20 Q140 36 164 20" fill="none" stroke="white" stroke-width="5" stroke-linecap="round"/>
  <rect y="0" width="280" height="22" fill="#15803d" clip-path="url(#jccfc)"/>
  <line x1="72" y1="58" x2="72" y2="130" stroke="rgba(0,0,0,0.1)" stroke-width="1.5"/>
  <line x1="208" y1="58" x2="208" y2="130" stroke="rgba(0,0,0,0.1)" stroke-width="1.5"/>
  <circle cx="108" cy="108" r="14" fill="rgba(21,128,61,0.7)" stroke="white" stroke-width="1.5" opacity="0.85"/>
  <text x="108" y="112" text-anchor="middle" font-family="'Bebas Neue',Impact,sans-serif" font-size="11" fill="white" opacity="0.9">CFC</text>
  <text x="140" y="218" text-anchor="middle" font-family="'Bebas Neue',Impact,sans-serif" font-size="72" fill="rgba(21,128,61,0.2)" font-weight="900">5</text>
  <path d="M20 70 L8 34 L90 20 Q118 6 140 4 Q162 6 190 20 L272 34 L260 70 L208 58 L208 280 Q208 290 198 290 L82 290 Q72 290 72 280 L72 58 Z" fill="none" stroke="rgba(0,0,0,0.12)" stroke-width="2"/>
</svg>