<svg xmlns="http://www.w3.org/2000/svg" viewBox="0 0 280 320" width="280" height="320">
  <defs>
    <clipPath id="jcpal"><path d="M20 70 L8 34 L90 20 Q118 6 140 4 Q162 6 190 20 L272 34 L260 70 L208 58 L208 280 Q208 290 198 290 L82 290 Q72 290 72 280 L72 58 Z"/></clipPath>
    <linearGradient id="jgpal" x1="0.2" y1="0" x2="0.8" y2="1">
      <stop offset="0%" stop-color="rgba(255,255,255,0.18)"/>
      <stop offset="100%" stop-color="rgba(0,0,0,0.22)"/>
    </linearGradient>
    
  </defs>
  <path d="M20 70 L8 34 L90 20 Q118 6 140 4 Q162 6 190 20 L272 34 L260 70 L208 58 L208 280 Q208 290 198 290 L82 290 Q72 290 72 280 L72 58 Z" fill="#166534" clip-path="url(#jcpal)"/>
  <rect x="133" width="14" height="320" fill="rgba(255,255,255,0.12)" clip-path="url(#jcpal)"/>
  <path d="M20 70 L8 34 L90 20 Q118 6 140 4 Q162 6 190 20 L272 34 L260 70 L208 58 L208 280 Q208 290 198 290 L82 290 Q72 290 72 280 L72 58 Z" fill="url(#jgpal)"/>
  <path d="M116 20 Q140 36 164 20" fill="none" stroke="white" stroke-width="5" stroke-linecap="round"/>
  <rect y="0" width="280" height="22" fill="#14532d" clip-path="url(#jcpal)"/>
  <line x1="72" y1="58" x2="72" y2="130" stroke="rgba(0,0,0,0.1)" stroke-width="1.5"/>
  <line x1="208" y1="58" x2="208" y2="130" stroke="rgba(0,0,0,0.1)" stroke-width="1.5"/>
  <circle cx="108" cy="108" r="14" fill="rgba(255,255,255,0.2)" stroke="white" stroke-width="1.5" opacity="0.85"/>
  <text x="108" y="112" text-anchor="middle" font-family="'Bebas Neue',Impact,sans-serif" font-size="11" fill="white" opacity="0.9">PAL</text>
  <text x="140" y="218" text-anchor="middle" font-family="'Bebas Neue',Impact,sans-serif" font-size="72" fill="rgba(255,255,255,0.15)" font-weight="900">9</text>
  <path d="M20 70 L8 34 L90 20 Q118 6 140 4 Q162 6 190 20 L272 34 L260 70 L208 58 L208 280 Q208 290 198 290 L82 290 Q72 290 72 280 L72 58 Z" fill="none" stroke="rgba(255,255,255,0.15)" stroke-width="2"/>
</svg>