<svg xmlns="http://www.w3.org/2000/svg" viewBox="0 0 480 480" width="480" height="480">
  <defs>
    <radialGradient id="bgjrcrt" cx="50%" cy="42%" r="65%">
      <stop offset="0%" stop-color="#f0fdf4"/>
      <stop offset="100%" stop-color="#dcfce7"/>
    </radialGradient>
    <linearGradient id="jrshinecrt" x1="25%" y1="10%" x2="75%" y2="90%">
      <stop offset="0%" stop-color="rgba(255,255,255,.32)"/>
      <stop offset="60%" stop-color="rgba(255,255,255,0)"/>
    </linearGradient>
    <linearGradient id="jrsidecrt" x1="0%" y1="0%" x2="100%" y2="0%">
      <stop offset="0%" stop-color="rgba(0,0,0,.38)"/>
      <stop offset="32%" stop-color="rgba(0,0,0,0)"/>
      <stop offset="68%" stop-color="rgba(0,0,0,0)"/>
      <stop offset="100%" stop-color="rgba(0,0,0,.32)"/>
    </linearGradient>
    <clipPath id="jrclipcrt">
      <path d="M80 160 L44 60 L172 28 Q208 14 240 12 Q272 14 308 28 L436 60 L400 160 L340 132 L340 420 Q340 434 326 434 L154 434 Q140 434 140 420 L140 132 Z"/>
    </clipPath>
    <filter id="jrdropcrt">
      <feDropShadow dx="0" dy="14" stdDeviation="20" flood-color="rgba(0,0,0,.3)"/>
    </filter>
    <filter id="jrblurcrt"><feGaussianBlur stdDeviation="2.5"/></filter>
  </defs>
  <rect width="480" height="480" fill="url(#bgjrcrt)"/>
  <ellipse cx="240" cy="454" rx="128" ry="16" fill="rgba(0,0,0,.1)" filter="url(#jrblurcrt)"/>

  <!-- JERSEY BODY -->
  <path d="M80 160 L44 60 L172 28 Q208 14 240 12 Q272 14 308 28 L436 60 L400 160 L340 132 L340 420 Q340 434 326 434 L154 434 Q140 434 140 420 L140 132 Z"
        fill="#f9fafb" filter="url(#jrdropcrt)"/>

  <!-- SLEEVES -->
  <path d="M80 160 L44 60 L172 28 L140 132 Z" fill="#166534"/>
  <path d="M400 160 L436 60 L308 28 L340 132 Z" fill="#166534"/>

  <!-- CLIP PATTERNS -->
  <g clip-path="url(#jrclipcrt)"><rect x="0" y="0" width="22" height="480" fill="#14532d"/><rect x="44" y="0" width="22" height="480" fill="#14532d"/><rect x="88" y="0" width="22" height="480" fill="#14532d"/><rect x="132" y="0" width="22" height="480" fill="#14532d"/><rect x="176" y="0" width="22" height="480" fill="#14532d"/><rect x="220" y="0" width="22" height="480" fill="#14532d"/><rect x="264" y="0" width="22" height="480" fill="#14532d"/><rect x="308" y="0" width="22" height="480" fill="#14532d"/><rect x="352" y="0" width="22" height="480" fill="#14532d"/><rect x="396" y="0" width="22" height="480" fill="#14532d"/><rect x="440" y="0" width="22" height="480" fill="#14532d"/></g>

  <!-- SIDE SHADOW -->
  <path d="M80 160 L44 60 L172 28 Q208 14 240 12 Q272 14 308 28 L436 60 L400 160 L340 132 L340 420 Q340 434 326 434 L154 434 Q140 434 140 420 L140 132 Z"
        fill="url(#jrsidecrt)"/>

  <!-- FABRIC SHINE overlay -->
  <path d="M80 160 L44 60 L172 28 Q208 14 240 12 Q272 14 308 28 L436 60 L400 160 L340 132 L340 420 Q340 434 326 434 L154 434 Q140 434 140 420 L140 132 Z"
        fill="url(#jrshinecrt)"/>

  <!-- COLLAR -->
  <ellipse cx="240" cy="22" rx="52" ry="20" fill="#052e16" opacity=".92"/>
  <ellipse cx="240" cy="20" rx="40" ry="13" fill="#052e16"/>
  <!-- Collar shine -->
  <ellipse cx="228" cy="18" rx="18" ry="7" fill="rgba(255,255,255,.18)"/>

  <!-- Driscoll mesh texture (horizontal lines for Dri-Fit) -->
  <g clip-path="url(#jrclipcrt)" stroke="rgba(255,255,255,.06)" stroke-width="1">
    <line x1="0" y1="60"  x2="480" y2="60"/>
    <line x1="0" y1="90"  x2="480" y2="90"/>
    <line x1="0" y1="120" x2="480" y2="120"/>
    <line x1="0" y1="180" x2="480" y2="180"/>
    <line x1="0" y1="210" x2="480" y2="210"/>
    <line x1="0" y1="240" x2="480" y2="240"/>
    <line x1="0" y1="270" x2="480" y2="270"/>
    <line x1="0" y1="300" x2="480" y2="300"/>
    <line x1="0" y1="330" x2="480" y2="330"/>
    <line x1="0" y1="360" x2="480" y2="360"/>
    <line x1="0" y1="390" x2="480" y2="390"/>
    <line x1="0" y1="420" x2="480" y2="420"/>
  </g>
</svg>