<svg xmlns="http://www.w3.org/2000/svg" viewBox="0 0 280 300" width="280" height="300"><defs><clipPath id="jccfc"><path d="M20 70 L8 34 L90 20 Q118 6 140 4 Q162 6 190 20 L272 34 L260 70 L208 58 L208 280 Q208 290 198 290 L82 290 Q72 290 72 280 L72 58 Z"/></clipPath><linearGradient id="jgcfc" x1="0.2" y1="0" x2="0.8" y2="1"><stop offset="0%" stop-color="rgba(255,255,255,0.16)"/><stop offset="100%" stop-color="rgba(0,0,0,0.2)"/></linearGradient><pattern id="cfcpat" x="0" y="0" width="28" height="300" patternUnits="userSpaceOnUse"><rect width="14" height="300" fill="#f9fafb"/><rect x="14" width="14" height="300" fill="#15803d"/></pattern><linearGradient id="jbgcfc" x1="0" y1="0" x2="0" y2="1" gradientUnits="objectBoundingBox"><stop offset="0%" stop-color="#052e16"/><stop offset="100%" stop-color="#0a1f0e"/></linearGradient></defs><rect width="280" height="300" fill="url(#jbgcfc)"/><path d="M20 70 L8 34 L90 20 Q118 6 140 4 Q162 6 190 20 L272 34 L260 70 L208 58 L208 280 Q208 290 198 290 L82 290 Q72 290 72 280 L72 58 Z" fill="url(#cfcpat)" clip-path="url(#jccfc)"/><path d="M20 70 L8 34 L90 20 Q118 6 140 4 Q162 6 190 20 L272 34 L260 70 L208 58 L208 280 Q208 290 198 290 L82 290 Q72 290 72 280 L72 58 Z" fill="url(#jgcfc)"/><path d="M118 22 L140 56 L162 22" fill="none" stroke="white" stroke-width="4" stroke-linecap="round" stroke-linejoin="round"/><line x1="72" y1="58" x2="72" y2="130" stroke="rgba(0,0,0,0.1)" stroke-width="1.5"/><line x1="208" y1="58" x2="208" y2="130" stroke="rgba(0,0,0,0.1)" stroke-width="1.5"/><circle cx="108" cy="108" r="14" fill="rgba(0,0,0,0.3)" stroke="white" stroke-width="1.5" opacity="0.85"/><text x="108" y="112" text-anchor="middle" font-family="Impact,sans-serif" font-size="11" fill="white">CFC</text><text x="140" y="218" text-anchor="middle" font-family="Impact,sans-serif" font-size="72" fill="rgba(255,255,255,0.16)" font-weight="900">5</text><path d="M20 70 L8 34 L90 20 Q118 6 140 4 Q162 6 190 20 L272 34 L260 70 L208 58 L208 280 Q208 290 198 290 L82 290 Q72 290 72 280 L72 58 Z" fill="none" stroke="rgba(0,0,0,0.1)" stroke-width="2"/></svg>