<svg xmlns="http://www.w3.org/2000/svg" viewBox="0 0 280 320" width="280" height="320"><defs><linearGradient id="bbg" x1="0" y1="0" x2="0" y2="1" gradientUnits="objectBoundingBox"><stop offset="0%" stop-color="#e3f2fd"/><stop offset="100%" stop-color="#bbdefb"/></linearGradient><linearGradient id="bblusa" x1="0" y1="0" x2="1" y2="1" gradientUnits="objectBoundingBox"><stop offset="0%" stop-color="#90caf9"/><stop offset="100%" stop-color="#42a5f5"/></linearGradient><filter id="bshadow" x="-20%" y="-20%" width="140%" height="140%"><feDropShadow dx="0" dy="6" stdDeviation="12" flood-color="rgba(0,0,0,0.25)"/></filter></defs><rect width="280" height="320" fill="url(#bbg)"/><path d="M88 55 L192 55 L198 200 L82 200 Z" fill="url(#bblusa)" filter="url(#bshadow)"/><path d="M88 55 Q60 45 48 80 Q46 105 72 108 L84 90 Z" fill="url(#bblusa)"/><path d="M192 55 Q220 45 232 80 Q234 105 208 108 L196 90 Z" fill="url(#bblusa)"/><path d="M108 55 Q140 78 172 55" fill="rgba(255,255,255,0.25)" stroke="white" stroke-width="2"/><path d="M82 195 Q100 185 118 195 Q136 205 154 195 Q172 185 190 195 Q198 198 198 202 Q172 212 154 202 Q136 192 118 202 Q100 212 82 202 Z" fill="#64b5f6" opacity="0.7"/><line x1="140" y1="78" x2="140" y2="195" stroke="rgba(255,255,255,0.35)" stroke-width="1.5" stroke-dasharray="4,4"/><path d="M92 60 L112 60 L106 180 L86 180 Z" fill="rgba(255,255,255,0.15)"/></svg>