<svg xmlns="http://www.w3.org/2000/svg" viewBox="0 0 280 320" width="280" height="320"><defs><linearGradient id="cbg" x1="0" y1="0" x2="0" y2="1" gradientUnits="objectBoundingBox"><stop offset="0%" stop-color="#fff8f4"/><stop offset="100%" stop-color="#fde8d8"/></linearGradient><linearGradient id="ctop" x1="0" y1="0" x2="1" y2="1" gradientUnits="objectBoundingBox"><stop offset="0%" stop-color="#d4a574"/><stop offset="100%" stop-color="#b8874a"/></linearGradient><linearGradient id="cbottom" x1="0" y1="0" x2="1" y2="1" gradientUnits="objectBoundingBox"><stop offset="0%" stop-color="#c49562"/><stop offset="100%" stop-color="#a0733a"/></linearGradient><filter id="cshadow" x="-20%" y="-20%" width="140%" height="140%"><feDropShadow dx="0" dy="6" stdDeviation="12" flood-color="rgba(0,0,0,0.25)"/></filter></defs><rect width="280" height="320" fill="url(#cbg)"/><path d="M96 30 L184 30 Q192 60 188 110 L92 110 Q88 60 96 30 Z" fill="url(#ctop)" filter="url(#cshadow)"/><path d="M96 30 L68 25 L64 72 L88 78 L92 45 Z" fill="url(#ctop)"/><path d="M184 30 L212 25 L216 72 L192 78 L188 45 Z" fill="url(#ctop)"/><path d="M118 30 Q140 52 162 30" fill="none" stroke="rgba(255,255,255,0.5)" stroke-width="3"/><line x1="90" y1="120" x2="190" y2="120" stroke="rgba(200,150,100,0.2)" stroke-width="2"/><path d="M92 130 L188 130 L188 140 L192 310 L148 310 L140 210 L132 310 L88 310 L92 140 Z" fill="url(#cbottom)"/><line x1="140" y1="130" x2="140" y2="310" stroke="rgba(0,0,0,0.1)" stroke-width="1.5"/><line x1="110" y1="200" x2="108" y2="310" stroke="rgba(255,255,255,0.12)" stroke-width="1"/><line x1="170" y1="200" x2="172" y2="310" stroke="rgba(255,255,255,0.12)" stroke-width="1"/><rect x="90" y="126" width="100" height="16" rx="4" fill="#a0733a"/></svg>