<svg xmlns="http://www.w3.org/2000/svg" viewBox="0 0 280 320" width="280" height="320"><defs><linearGradient id="mbg" x1="0" y1="0" x2="0" y2="1" gradientUnits="objectBoundingBox"><stop offset="0%" stop-color="#f3e5f5"/><stop offset="100%" stop-color="#e1bee7"/></linearGradient><linearGradient id="mmac" x1="0" y1="0" x2="1" y2="1" gradientUnits="objectBoundingBox"><stop offset="0%" stop-color="#4a148c"/><stop offset="100%" stop-color="#311b92"/></linearGradient><filter id="mshadow" x="-20%" y="-20%" width="140%" height="140%"><feDropShadow dx="0" dy="6" stdDeviation="12" flood-color="rgba(0,0,0,0.25)"/></filter></defs><rect width="280" height="320" fill="url(#mbg)"/><path d="M100 30 L180 30 L185 145 L95 145 Z" fill="url(#mmac)" filter="url(#mshadow)"/><rect x="113" y="20" width="10" height="35" rx="5" fill="#4a148c"/><rect x="157" y="20" width="10" height="35" rx="5" fill="#4a148c"/><path d="M115 30 Q140 50 165 30" fill="none" stroke="rgba(255,255,255,0.4)" stroke-width="2.5"/><path d="M95 140 L130 140 L115 305 L68 305 Z" fill="url(#mmac)"/><path d="M150 140 L185 140 L212 305 L165 305 Z" fill="url(#mmac)"/><rect x="93" y="138" width="94" height="14" rx="4" fill="#1a0050"/><rect x="133" y="134" width="14" height="22" rx="3" fill="#6a1b9a"/><line x1="103" y1="35" x2="103" y2="142" stroke="rgba(255,255,255,0.1)" stroke-width="1"/><line x1="177" y1="35" x2="177" y2="142" stroke="rgba(255,255,255,0.1)" stroke-width="1"/><path d="M100 30 L118 30 L116 145 L100 145 Z" fill="rgba(255,255,255,0.1)"/></svg>