<svg xmlns="http://www.w3.org/2000/svg" viewBox="0 0 280 320" width="280" height="320"><defs><linearGradient id="sbg" x1="0" y1="0" x2="0" y2="1" gradientUnits="objectBoundingBox"><stop offset="0%" stop-color="#e8eaf6"/><stop offset="100%" stop-color="#c5cae9"/></linearGradient><linearGradient id="ssaia" x1="0" y1="0" x2="1" y2="1" gradientUnits="objectBoundingBox"><stop offset="0%" stop-color="#5c6bc0"/><stop offset="100%" stop-color="#3949ab"/></linearGradient><filter id="sshadow" x="-20%" y="-20%" width="140%" height="140%"><feDropShadow dx="0" dy="6" stdDeviation="12" flood-color="rgba(0,0,0,0.25)"/></filter></defs><rect width="280" height="320" fill="url(#sbg)"/><rect x="90" y="40" width="100" height="22" rx="6" fill="#303f9f"/><path d="M88 60 L192 60 L230 305 L50 305 Z" fill="url(#ssaia)" filter="url(#sshadow)"/><line x1="108" y1="62" x2="88" y2="305" stroke="rgba(255,255,255,0.18)" stroke-width="1.5"/><line x1="126" y1="62" x2="115" y2="305" stroke="rgba(255,255,255,0.18)" stroke-width="1.5"/><line x1="140" y1="62" x2="140" y2="305" stroke="rgba(255,255,255,0.15)" stroke-width="1"/><line x1="154" y1="62" x2="165" y2="305" stroke="rgba(255,255,255,0.18)" stroke-width="1.5"/><line x1="172" y1="62" x2="192" y2="305" stroke="rgba(255,255,255,0.18)" stroke-width="1.5"/><path d="M88 60 L120 60 L100 305 L50 305 Z" fill="rgba(255,255,255,0.1)"/><rect x="133" y="36" width="14" height="28" rx="3" fill="#1a237e" opacity="0.7"/></svg>