<svg xmlns="http://www.w3.org/2000/svg" viewBox="0 0 280 320" width="280" height="320"><defs><linearGradient id="vbg" x1="0" y1="0" x2="0" y2="1" gradientUnits="objectBoundingBox"><stop offset="0%" stop-color="#fce4ec"/><stop offset="100%" stop-color="#f8bbd0"/></linearGradient><linearGradient id="vdress" x1="0" y1="0" x2="1" y2="1" gradientUnits="objectBoundingBox"><stop offset="0%" stop-color="#f48fb1"/><stop offset="100%" stop-color="#e91e8c"/></linearGradient><filter id="vshadow" x="-20%" y="-20%" width="140%" height="140%"><feDropShadow dx="0" dy="6" stdDeviation="12" flood-color="rgba(0,0,0,0.25)"/></filter></defs><rect width="280" height="320" fill="url(#vbg)"/><rect x="107" y="28" width="12" height="50" rx="6" fill="url(#vdress)"/><rect x="161" y="28" width="12" height="50" rx="6" fill="url(#vdress)"/><path d="M92 75 L188 75 L198 155 L82 155 Z" fill="url(#vdress)" filter="url(#vshadow)"/><path d="M76 150 L204 150 L240 305 L40 305 Z" fill="url(#vdress)"/><path d="M76 150 L110 150 L95 305 L40 305 Z" fill="rgba(255,255,255,0.12)"/><circle cx="120" cy="185" r="6" fill="#fff" opacity="0.55"/><circle cx="111" cy="185" r="4" fill="#fff" opacity="0.4"/><circle cx="129" cy="185" r="4" fill="#fff" opacity="0.4"/><circle cx="120" cy="176" r="4" fill="#fff" opacity="0.4"/><circle cx="120" cy="194" r="4" fill="#fff" opacity="0.4"/><circle cx="175" cy="210" r="5" fill="#fff" opacity="0.55"/><circle cx="167" cy="210" r="3" fill="#fff" opacity="0.4"/><circle cx="183" cy="210" r="3" fill="#fff" opacity="0.4"/><circle cx="175" cy="202" r="3" fill="#fff" opacity="0.4"/><circle cx="175" cy="218" r="3" fill="#fff" opacity="0.4"/><circle cx="95" cy="240" r="6" fill="#fff" opacity="0.55"/><circle cx="86" cy="240" r="4" fill="#fff" opacity="0.4"/><circle cx="104" cy="240" r="4" fill="#fff" opacity="0.4"/><circle cx="95" cy="231" r="4" fill="#fff" opacity="0.4"/><circle cx="95" cy="249" r="4" fill="#fff" opacity="0.4"/><circle cx="155" cy="265" r="5" fill="#fff" opacity="0.55"/><circle cx="147" cy="265" r="3" fill="#fff" opacity="0.4"/><circle cx="163" cy="265" r="3" fill="#fff" opacity="0.4"/><circle cx="155" cy="257" r="3" fill="#fff" opacity="0.4"/><circle cx="155" cy="273" r="3" fill="#fff" opacity="0.4"/><circle cx="135" cy="225" r="7" fill="#fce4ec" opacity="0.55"/><circle cx="125" cy="225" r="4" fill="#fce4ec" opacity="0.4"/><circle cx="145" cy="225" r="4" fill="#fce4ec" opacity="0.4"/><circle cx="135" cy="215" r="4" fill="#fce4ec" opacity="0.4"/><circle cx="135" cy="235" r="4" fill="#fce4ec" opacity="0.4"/><circle cx="100" cy="200" r="5" fill="#fce4ec" opacity="0.55"/><circle cx="92" cy="200" r="3" fill="#fce4ec" opacity="0.4"/><circle cx="108" cy="200" r="3" fill="#fce4ec" opacity="0.4"/><circle cx="100" cy="192" r="3" fill="#fce4ec" opacity="0.4"/><circle cx="100" cy="208" r="3" fill="#fce4ec" opacity="0.4"/><circle cx="165" cy="245" r="6" fill="#fce4ec" opacity="0.55"/><circle cx="156" cy="245" r="4" fill="#fce4ec" opacity="0.4"/><circle cx="174" cy="245" r="4" fill="#fce4ec" opacity="0.4"/><circle cx="165" cy="236" r="4" fill="#fce4ec" opacity="0.4"/><circle cx="165" cy="254" r="4" fill="#fce4ec" opacity="0.4"/><circle cx="80" cy="265" r="4" fill="#fff" opacity="0.55"/><circle cx="73" cy="265" r="3" fill="#fff" opacity="0.4"/><circle cx="87" cy="265" r="3" fill="#fff" opacity="0.4"/><circle cx="80" cy="258" r="3" fill="#fff" opacity="0.4"/><circle cx="80" cy="272" r="3" fill="#fff" opacity="0.4"/><line x1="82" y1="153" x2="198" y2="153" stroke="rgba(255,255,255,0.3)" stroke-width="1.5"/><rect x="127" y="290" width="26" height="12" rx="2" fill="white" opacity="0.6"/></svg>