<?xml version="1.0" encoding="UTF-8"?>
<svg xmlns="http://www.w3.org/2000/svg" viewBox="0 0 1200 480" width="1200" height="480">
  <defs>
    <linearGradient id="bg-grad" x1="0" y1="0" x2="1" y2="1">
      <stop offset="0%" stop-color="#08101e"/>
      <stop offset="45%" stop-color="#0f172a"/>
      <stop offset="100%" stop-color="#16213e"/>
    </linearGradient>
    <radialGradient id="glow-red" cx="80%" cy="30%" r="40%">
      <stop offset="0%" stop-color="#e63946" stop-opacity="0.12"/>
      <stop offset="100%" stop-color="#e63946" stop-opacity="0"/>
    </radialGradient>
    <pattern id="dots" x="0" y="0" width="28" height="28" patternUnits="userSpaceOnUse">
      <circle cx="1" cy="1" r="1" fill="rgba(255,255,255,0.03)"/>
    </pattern>
    <!-- Jersey clip paths for standalone -->
    <clipPath id="sj1"><path d="M28 16 Q38 9 42 7 Q46 12 50 12 Q54 12 58 7 Q62 9 72 16 L93 28 L81 44 L73 38 L73 108 L27 108 L27 38 L19 44 L7 28 Z" transform="translate(720,80) scale(2.2)"/></clipPath>
    <clipPath id="sj2"><path d="M28 16 Q38 9 42 7 Q46 12 50 12 Q54 12 58 7 Q62 9 72 16 L93 28 L81 44 L73 38 L73 108 L27 108 L27 38 L19 44 L7 28 Z" transform="translate(880,110) scale(1.8) rotate(10 50 60)"/></clipPath>
    <clipPath id="sj3"><path d="M28 16 Q38 9 42 7 Q46 12 50 12 Q54 12 58 7 Q62 9 72 16 L93 28 L81 44 L73 38 L73 108 L27 108 L27 38 L19 44 L7 28 Z" transform="translate(600,110) scale(1.8) rotate(-12 50 60)"/></clipPath>
  </defs>

  <!-- Background -->
  <rect width="1200" height="480" fill="url(#bg-grad)"/>
  <rect width="1200" height="480" fill="url(#dots)"/>
  <rect width="1200" height="480" fill="url(#glow-red)"/>

  <!-- Decorative diagonal lines -->
  <line x1="950" y1="-50" x2="1300" y2="540" stroke="rgba(255,255,255,0.03)" stroke-width="60"/>
  <line x1="1050" y1="-50" x2="1400" y2="540" stroke="rgba(255,255,255,0.02)" stroke-width="40"/>

  <!-- Jersey 3 - Brasil (back-right) -->
  <rect transform="translate(880,110) scale(1.8) rotate(10 50 60)" width="100" height="120" fill="#ca8a04" clip-path="url(#sj2)"/>
  <rect transform="translate(880,110) scale(1.8) rotate(10 50 60)" y="0" width="100" height="20" fill="#15803d" clip-path="url(#sj2)"/>
  <path transform="translate(880,110) scale(1.8) rotate(10 50 60)" d="M28 16 Q38 9 42 7 Q46 12 50 12 Q54 12 58 7 Q62 9 72 16 L93 28 L81 44 L73 38 L73 108 L27 108 L27 38 L19 44 L7 28 Z" fill="none" stroke="rgba(255,255,255,0.15)" stroke-width="1.5"/>

  <!-- Jersey 2 - Palmeiras (back-left) -->
  <rect transform="translate(600,110) scale(1.8) rotate(-12 50 60)" width="100" height="120" fill="#166534" clip-path="url(#sj3)"/>
  <rect transform="translate(600,110) scale(1.8) rotate(-12 50 60)" x="40" width="20" height="120" fill="rgba(255,255,255,0.12)" clip-path="url(#sj3)"/>
  <path transform="translate(600,110) scale(1.8) rotate(-12 50 60)" d="M28 16 Q38 9 42 7 Q46 12 50 12 Q54 12 58 7 Q62 9 72 16 L93 28 L81 44 L73 38 L73 108 L27 108 L27 38 L19 44 L7 28 Z" fill="none" stroke="rgba(255,255,255,0.15)" stroke-width="1.5"/>

  <!-- Jersey 1 - Flamengo (front center) -->
  <rect transform="translate(720,80) scale(2.2)" width="100" height="120" fill="#dc2626" clip-path="url(#sj1)"/>
  <rect transform="translate(720,80) scale(2.2)" y="30" width="100" height="12" fill="#1a1a1a" clip-path="url(#sj1)"/>
  <rect transform="translate(720,80) scale(2.2)" y="56" width="100" height="12" fill="#1a1a1a" clip-path="url(#sj1)"/>
  <rect transform="translate(720,80) scale(2.2)" y="82" width="100" height="12" fill="#1a1a1a" clip-path="url(#sj1)"/>
  <path transform="translate(720,80) scale(2.2)" d="M28 16 Q38 9 42 7 Q46 12 50 12 Q54 12 58 7 Q62 9 72 16 L93 28 L81 44 L73 38 L73 108 L27 108 L27 38 L19 44 L7 28 Z" fill="none" stroke="rgba(255,255,255,0.25)" stroke-width="1.5"/>

  <!-- Text content -->
  <!-- Tag -->
  <rect x="60" y="60" width="260" height="32" rx="16" fill="rgba(34,211,238,0.1)" stroke="rgba(34,211,238,0.25)" stroke-width="1"/>
  <circle cx="82" cy="76" r="5" fill="#22d3ee"/>
  <text x="96" y="81" font-family="Inter,Arial,sans-serif" font-size="12" font-weight="700" letter-spacing="2" fill="#22d3ee" text-anchor="start">TEMPORADA 2024/25 · OFICIAL</text>

  <!-- Main title -->
  <text x="60" y="160" font-family="'Bebas Neue',Impact,sans-serif" font-size="72" letter-spacing="3" fill="#f8fafc">CAMISETAS DOS</text>
  <text x="60" y="248" font-family="'Bebas Neue',Impact,sans-serif" font-size="72" letter-spacing="3" fill="#f4d35e">MAIORES TIMES</text>
  <text x="60" y="316" font-family="'Bebas Neue',Impact,sans-serif" font-size="72" letter-spacing="3" fill="#f8fafc">DO BRASIL</text>

  <!-- Subtitle -->
  <text x="60" y="360" font-family="Inter,Arial,sans-serif" font-size="16" fill="rgba(248,250,252,0.6)">Qualidade premium  •  Entrega rapida  •  Compra segura</text>

  <!-- CTA Button -->
  <rect x="60" y="390" width="200" height="52" rx="8" fill="#e63946"/>
  <text x="160" y="422" font-family="'Bebas Neue',Impact,sans-serif" font-size="22" letter-spacing="3" fill="white" text-anchor="middle">VER OFERTAS</text>
</svg>