<svg xmlns="http://www.w3.org/2000/svg" viewBox="0 0 280 320" width="280" height="320"><defs><linearGradient id="brbg" x1="0" y1="0" x2="0" y2="1" gradientUnits="objectBoundingBox"><stop offset="0%" stop-color="#f0fdf4"/><stop offset="100%" stop-color="#dcfce7"/></linearGradient><radialGradient id="brball" cx="50%" cy="40%" r="55%"><stop offset="0%" stop-color="#4ade80"/><stop offset="60%" stop-color="#16a34a"/><stop offset="100%" stop-color="#14532d"/></radialGradient></defs><rect width="280" height="320" fill="url(#brbg)"/><circle cx="140" cy="165" r="110" fill="url(#brball)"/><path d="M140 55 Q200 80 250 165 Q220 240 140 275 Z" fill="rgba(255,255,255,0.12)"/><path d="M140 55 Q80 80 30 165 Q60 240 140 275 Z" fill="rgba(0,0,0,0.08)"/><path d="M62 105 Q140 88 218 105" fill="none" stroke="rgba(255,255,255,0.25)" stroke-width="2.5"/><path d="M38 170 Q140 195 242 170" fill="none" stroke="rgba(255,255,255,0.2)" stroke-width="2"/><path d="M62 225 Q140 248 218 225" fill="none" stroke="rgba(255,255,255,0.2)" stroke-width="2"/><circle cx="140" cy="150" r="11.0" fill="rgba(255,255,255,0.3)"/><circle cx="130" cy="138" r="6" fill="rgba(255,255,255,0.3)"/><circle cx="140" cy="135" r="6" fill="rgba(255,255,255,0.3)"/><circle cx="150" cy="138" r="6" fill="rgba(255,255,255,0.3)"/><circle cx="124" cy="147" r="4" fill="rgba(255,255,255,0.3)"/><circle cx="156" cy="147" r="4" fill="rgba(255,255,255,0.3)"/><circle cx="105" cy="200" r="6.0" fill="rgba(255,255,255,0.2)"/><circle cx="100" cy="193" r="3" fill="rgba(255,255,255,0.2)"/><circle cx="105" cy="192" r="3" fill="rgba(255,255,255,0.2)"/><circle cx="110" cy="193" r="3" fill="rgba(255,255,255,0.2)"/><circle cx="96" cy="198" r="2" fill="rgba(255,255,255,0.2)"/><circle cx="114" cy="198" r="2" fill="rgba(255,255,255,0.2)"/><circle cx="175" cy="200" r="6.0" fill="rgba(255,255,255,0.2)"/><circle cx="170" cy="193" r="3" fill="rgba(255,255,255,0.2)"/><circle cx="175" cy="192" r="3" fill="rgba(255,255,255,0.2)"/><circle cx="180" cy="193" r="3" fill="rgba(255,255,255,0.2)"/><circle cx="166" cy="198" r="2" fill="rgba(255,255,255,0.2)"/><circle cx="184" cy="198" r="2" fill="rgba(255,255,255,0.2)"/><text x="100" y="118" text-anchor="middle" font-size="18" fill="rgba(255,255,255,0.4)">&#10024;</text><text x="182" y="125" text-anchor="middle" font-size="14" fill="rgba(255,255,255,0.35)">&#10024;</text><circle cx="95" cy="105" r="22" fill="rgba(255,255,255,0.2)"/></svg>