<svg xmlns="http://www.w3.org/2000/svg" viewBox="0 0 280 320" width="280" height="320"><defs><linearGradient id="cabg" x1="0" y1="0" x2="0" y2="1" gradientUnits="objectBoundingBox"><stop offset="0%" stop-color="#fffbeb"/><stop offset="100%" stop-color="#fef9c3"/></linearGradient><radialGradient id="cabed" cx="50%" cy="40%" r="55%"><stop offset="0%" stop-color="#fde68a"/><stop offset="70%" stop-color="#f59e0b"/><stop offset="100%" stop-color="#d97706"/></radialGradient><radialGradient id="cainside" cx="50%" cy="40%" r="55%"><stop offset="0%" stop-color="#fef3c7"/><stop offset="100%" stop-color="#fde68a"/></radialGradient></defs><rect width="280" height="320" fill="url(#cabg)"/><ellipse cx="140" cy="185" rx="118" ry="75" fill="url(#cabed)"/><ellipse cx="140" cy="185" rx="88" ry="52" fill="url(#cainside)"/><ellipse cx="140" cy="185" rx="112" ry="70" fill="none" stroke="rgba(255,255,255,0.4)" stroke-width="2" stroke-dasharray="8,5"/><ellipse cx="140" cy="185" rx="93" ry="57" fill="none" stroke="#f59e0b" stroke-width="2" opacity="0.5"/><circle cx="140" cy="195" r="12.0" fill="rgba(217,119,6,0.35)"/><circle cx="129" cy="182" r="6" fill="rgba(217,119,6,0.35)"/><circle cx="140" cy="178" r="6" fill="rgba(217,119,6,0.35)"/><circle cx="151" cy="182" r="6" fill="rgba(217,119,6,0.35)"/><circle cx="122" cy="191" r="5" fill="rgba(217,119,6,0.35)"/><circle cx="158" cy="191" r="5" fill="rgba(217,119,6,0.35)"/><circle cx="35" cy="175" r="5" fill="rgba(255,255,255,0.4)"/><circle cx="22" cy="195" r="4" fill="rgba(255,255,255,0.3)"/><circle cx="245" cy="175" r="5" fill="rgba(255,255,255,0.4)"/><circle cx="258" cy="195" r="4" fill="rgba(255,255,255,0.3)"/><ellipse cx="115" cy="165" rx="35" ry="15" fill="rgba(255,255,255,0.2)"/><path d="M108 210 Q120 200 140 200 Q160 200 172 210 Q168 222 140 226 Q112 222 108 210 Z" fill="rgba(217,119,6,0.3)"/></svg>