<svg xmlns="http://www.w3.org/2000/svg" viewBox="0 0 280 320" width="280" height="320"><defs><linearGradient id="cobg" x1="0" y1="0" x2="0" y2="1" gradientUnits="objectBoundingBox"><stop offset="0%" stop-color="#fff5f5"/><stop offset="100%" stop-color="#ffd0d0"/></linearGradient><linearGradient id="coleir" x1="0" y1="0" x2="1" y2="1" gradientUnits="objectBoundingBox"><stop offset="0%" stop-color="#ef4444"/><stop offset="100%" stop-color="#b91c1c"/></linearGradient></defs><rect width="280" height="320" fill="url(#cobg)"/><ellipse cx="140" cy="175" rx="110" ry="48" fill="url(#coleir)"/><ellipse cx="140" cy="175" rx="86" ry="30" fill="none" stroke="rgba(255,255,255,0.15)" stroke-width="1.5"/><ellipse cx="140" cy="175" rx="110" ry="48" fill="none" stroke="#991b1b" stroke-width="3"/><ellipse cx="140" cy="175" rx="105" ry="43" fill="none" stroke="rgba(255,255,255,0.2)" stroke-width="1" stroke-dasharray="6,4"/><rect x="120" y="210" width="40" height="22" rx="5" fill="#9ca3af"/><rect x="128" y="215" width="24" height="12" rx="3" fill="#d1d5db"/><line x1="140" y1="210" x2="140" y2="232" stroke="#6b7280" stroke-width="3"/><circle cx="140" cy="138" r="14" fill="none" stroke="#d1d5db" stroke-width="4"/><path d="M140 96 Q145 88 153 88 Q162 88 162 97 Q162 104 140 118 Q118 104 118 97 Q118 88 127 88 Q135 88 140 96 Z" fill="#fca5a5"/><circle cx="90" cy="175" r="5.0" fill="rgba(255,255,255,0.25)"/><circle cx="86" cy="170" r="2" fill="rgba(255,255,255,0.25)"/><circle cx="90" cy="168" r="2" fill="rgba(255,255,255,0.25)"/><circle cx="94" cy="170" r="2" fill="rgba(255,255,255,0.25)"/><circle cx="82" cy="174" r="2" fill="rgba(255,255,255,0.25)"/><circle cx="98" cy="174" r="2" fill="rgba(255,255,255,0.25)"/><circle cx="190" cy="175" r="5.0" fill="rgba(255,255,255,0.25)"/><circle cx="186" cy="170" r="2" fill="rgba(255,255,255,0.25)"/><circle cx="190" cy="168" r="2" fill="rgba(255,255,255,0.25)"/><circle cx="194" cy="170" r="2" fill="rgba(255,255,255,0.25)"/><circle cx="182" cy="174" r="2" fill="rgba(255,255,255,0.25)"/><circle cx="198" cy="174" r="2" fill="rgba(255,255,255,0.25)"/><ellipse cx="140" cy="158" rx="108" ry="12" fill="rgba(255,255,255,0.12)"/></svg>