<svg xmlns="http://www.w3.org/2000/svg" viewBox="0 0 280 320" width="280" height="320"><defs><linearGradient id="rbg" x1="0" y1="0" x2="0" y2="1" gradientUnits="objectBoundingBox"><stop offset="0%" stop-color="#fff8f0"/><stop offset="100%" stop-color="#fdecd4"/></linearGradient><linearGradient id="rbag" x1="0" y1="0" x2="1" y2="1" gradientUnits="objectBoundingBox"><stop offset="0%" stop-color="#d97706"/><stop offset="100%" stop-color="#92400e"/></linearGradient><linearGradient id="rlabel" x1="0" y1="0" x2="0" y2="1" gradientUnits="objectBoundingBox"><stop offset="0%" stop-color="#fef3c7"/><stop offset="100%" stop-color="#fde68a"/></linearGradient></defs><rect width="280" height="320" fill="url(#rbg)"/><rect x="55" y="80" width="170" height="200" rx="12" fill="url(#rbag)"/><path d="M55 80 Q80 55 140 50 Q200 55 225 80 L210 92 Q170 68 140 65 Q110 68 70 92 Z" fill="#b45309"/><rect x="72" y="110" width="136" height="110" rx="8" fill="url(#rlabel)"/><text x="140" y="148" text-anchor="middle" font-family="Impact,sans-serif" font-size="17" font-weight="900" fill="#92400e" letter-spacing="2">PREMIUM</text><text x="140" y="168" text-anchor="middle" font-family="Impact,sans-serif" font-size="12" fill="#b45309" letter-spacing="1">RAÇÃO COMPLETA</text><circle cx="140" cy="198" r="7.0" fill="rgba(146,64,14,0.35)"/><circle cx="134" cy="190" r="4" fill="rgba(146,64,14,0.35)"/><circle cx="140" cy="188" r="4" fill="rgba(146,64,14,0.35)"/><circle cx="146" cy="190" r="4" fill="rgba(146,64,14,0.35)"/><circle cx="130" cy="196" r="3" fill="rgba(146,64,14,0.35)"/><circle cx="150" cy="196" r="3" fill="rgba(146,64,14,0.35)"/><path d="M88 236 Q96 228 112 236 Q104 244 88 236 Z" fill="rgba(255,255,255,0.3)"/><path d="M168 236 Q184 228 192 236 Q184 244 168 236 Z" fill="rgba(255,255,255,0.3)"/><line x1="112" y1="236" x2="168" y2="236" stroke="rgba(255,255,255,0.3)" stroke-width="6" stroke-linecap="round"/><text x="140" y="265" text-anchor="middle" font-family="Impact,sans-serif" font-size="13" fill="rgba(255,255,255,0.7)">15kg</text><path d="M60 85 L76 85 L76 272 L60 272 Z" fill="rgba(255,255,255,0.1)" rx="4"/></svg>