<svg xmlns="http://www.w3.org/2000/svg" viewBox="0 0 280 320" width="280" height="320"><defs><linearGradient id="tbg" x1="0" y1="0" x2="0" y2="1" gradientUnits="objectBoundingBox"><stop offset="0%" stop-color="#f0f9ff"/><stop offset="100%" stop-color="#e0f2fe"/></linearGradient><linearGradient id="tpad" x1="0" y1="0" x2="0" y2="1" gradientUnits="objectBoundingBox"><stop offset="0%" stop-color="#f8fafc"/><stop offset="100%" stop-color="#f1f5f9"/></linearGradient></defs><rect width="280" height="320" fill="url(#tbg)"/><rect x="30" y="70" width="220" height="190" rx="14" fill="url(#tpad)" stroke="#bae6fd" stroke-width="3"/><rect x="30" y="70" width="220" height="20" rx="14" fill="#7dd3fc"/><rect x="30" y="240" width="220" height="20" rx="14" fill="#7dd3fc"/><rect x="30" y="70" width="20" height="190" rx="14" fill="#7dd3fc"/><rect x="230" y="70" width="20" height="190" rx="14" fill="#7dd3fc"/><line x1="65" y1="95" x2="65" y2="238" stroke="#e0f2fe" stroke-width="1"/><line x1="83" y1="95" x2="83" y2="238" stroke="#e0f2fe" stroke-width="1"/><line x1="101" y1="95" x2="101" y2="238" stroke="#e0f2fe" stroke-width="1"/><line x1="119" y1="95" x2="119" y2="238" stroke="#e0f2fe" stroke-width="1"/><line x1="137" y1="95" x2="137" y2="238" stroke="#e0f2fe" stroke-width="1"/><line x1="155" y1="95" x2="155" y2="238" stroke="#e0f2fe" stroke-width="1"/><line x1="173" y1="95" x2="173" y2="238" stroke="#e0f2fe" stroke-width="1"/><line x1="191" y1="95" x2="191" y2="238" stroke="#e0f2fe" stroke-width="1"/><line x1="209" y1="95" x2="209" y2="238" stroke="#e0f2fe" stroke-width="1"/><line x1="227" y1="95" x2="227" y2="238" stroke="#e0f2fe" stroke-width="1"/><line x1="55" y1="100" x2="225" y2="100" stroke="#e0f2fe" stroke-width="1"/><line x1="55" y1="120" x2="225" y2="120" stroke="#e0f2fe" stroke-width="1"/><line x1="55" y1="140" x2="225" y2="140" stroke="#e0f2fe" stroke-width="1"/><line x1="55" y1="160" x2="225" y2="160" stroke="#e0f2fe" stroke-width="1"/><line x1="55" y1="180" x2="225" y2="180" stroke="#e0f2fe" stroke-width="1"/><line x1="55" y1="200" x2="225" y2="200" stroke="#e0f2fe" stroke-width="1"/><line x1="55" y1="220" x2="225" y2="220" stroke="#e0f2fe" stroke-width="1"/><circle cx="90" cy="175" r="8.0" fill="rgba(125,211,252,0.5)"/><circle cx="83" cy="166" r="4" fill="rgba(125,211,252,0.5)"/><circle cx="90" cy="164" r="4" fill="rgba(125,211,252,0.5)"/><circle cx="97" cy="166" r="4" fill="rgba(125,211,252,0.5)"/><circle cx="78" cy="173" r="3" fill="rgba(125,211,252,0.5)"/><circle cx="102" cy="173" r="3" fill="rgba(125,211,252,0.5)"/><circle cx="190" cy="175" r="8.0" fill="rgba(125,211,252,0.5)"/><circle cx="183" cy="166" r="4" fill="rgba(125,211,252,0.5)"/><circle cx="190" cy="164" r="4" fill="rgba(125,211,252,0.5)"/><circle cx="197" cy="166" r="4" fill="rgba(125,211,252,0.5)"/><circle cx="178" cy="173" r="3" fill="rgba(125,211,252,0.5)"/><circle cx="202" cy="173" r="3" fill="rgba(125,211,252,0.5)"/><circle cx="140" cy="145" r="7.0" fill="rgba(125,211,252,0.4)"/><circle cx="134" cy="137" r="4" fill="rgba(125,211,252,0.4)"/><circle cx="140" cy="135" r="4" fill="rgba(125,211,252,0.4)"/><circle cx="146" cy="137" r="4" fill="rgba(125,211,252,0.4)"/><circle cx="130" cy="143" r="3" fill="rgba(125,211,252,0.4)"/><circle cx="150" cy="143" r="3" fill="rgba(125,211,252,0.4)"/><text x="140" y="230" text-anchor="middle" font-family="Impact,sans-serif" font-size="12" fill="#7dd3fc" letter-spacing="2">HIGIÊNICO</text><rect x="95" y="50" width="90" height="18" rx="9" fill="#0ea5e9"/><text x="140" y="63" text-anchor="middle" font-family="Impact,sans-serif" font-size="10" fill="white" letter-spacing="1">ULTRA ABSORÇÃO</text></svg>